<?xml version="1.0" encoding="UTF-8" standalone="no"?><svg xmlns="http://www.w3.org/2000/svg" xmlns:xlink="http://www.w3.org/1999/xlink" contentStyleType="text/css" height="287px" preserveAspectRatio="none" style="width:433px;height:287px;background:#FFFFFF;" version="1.1" viewBox="0 0 433 287" width="433px" zoomAndPan="magnify"><defs/><g><rect height="26.2969" style="stroke:#00000000;stroke-width:1.0;fill:none;" width="248" x="91.75" y="10"/><text fill="#000000" font-family="sans-serif" font-size="14" font-weight="bold" lengthAdjust="spacing" textLength="238" x="96.75" y="27.9951">Alice withdraws USDT for USN</text><line style="stroke:#181818;stroke-width:0.5;stroke-dasharray:5.0,5.0;" x1="28" x2="28" y1="73.5938" y2="252.2578"/><line style="stroke:#181818;stroke-width:0.5;stroke-dasharray:5.0,5.0;" x1="200" x2="200" y1="73.5938" y2="252.2578"/><line style="stroke:#181818;stroke-width:0.5;stroke-dasharray:5.0,5.0;" x1="400.5" x2="400.5" y1="73.5938" y2="252.2578"/><rect fill="#E2E2F0" height="30.2969" rx="2.5" ry="2.5" style="stroke:#181818;stroke-width:0.5;" width="46" x="5" y="42.2969"/><text fill="#000000" font-family="sans-serif" font-size="14" lengthAdjust="spacing" textLength="32" x="12" y="62.292">Alice</text><rect fill="#E2E2F0" height="30.2969" rx="2.5" ry="2.5" style="stroke:#181818;stroke-width:0.5;" width="46" x="5" y="251.2578"/><text fill="#000000" font-family="sans-serif" font-size="14" lengthAdjust="spacing" textLength="32" x="12" y="271.2529">Alice</text><rect fill="#E2E2F0" height="30.2969" rx="2.5" ry="2.5" style="stroke:#181818;stroke-width:0.5;" width="52" x="174" y="42.2969"/><text fill="#000000" font-family="sans-serif" font-size="14" lengthAdjust="spacing" textLength="38" x="181" y="62.292">USN2</text><rect fill="#E2E2F0" height="30.2969" rx="2.5" ry="2.5" style="stroke:#181818;stroke-width:0.5;" width="52" x="174" y="251.2578"/><text fill="#000000" font-family="sans-serif" font-size="14" lengthAdjust="spacing" textLength="38" x="181" y="271.2529">USN2</text><rect fill="#E2E2F0" height="30.2969" rx="2.5" ry="2.5" style="stroke:#181818;stroke-width:0.5;" width="53" x="374.5" y="42.2969"/><text fill="#000000" font-family="sans-serif" font-size="14" lengthAdjust="spacing" textLength="39" x="381.5" y="62.292">USDT</text><rect fill="#E2E2F0" height="30.2969" rx="2.5" ry="2.5" style="stroke:#181818;stroke-width:0.5;" width="53" x="374.5" y="251.2578"/><text fill="#000000" font-family="sans-serif" font-size="14" lengthAdjust="spacing" textLength="39" x="381.5" y="271.2529">USDT</text><polygon fill="#181818" points="188,100.7266,198,104.7266,188,108.7266,192,104.7266" style="stroke:#181818;stroke-width:1.0;"/><line style="stroke:#181818;stroke-width:1.0;" x1="28" x2="194" y1="104.7266" y2="104.7266"/><text fill="#000000" font-family="sans-serif" font-size="13" lengthAdjust="spacing" textLength="148" x="35" y="99.6606">withdraw(USN amount)</text><line style="stroke:#181818;stroke-width:1.0;" x1="200" x2="242" y1="133.8594" y2="133.8594"/><line style="stroke:#181818;stroke-width:1.0;" x1="242" x2="242" y1="133.8594" y2="146.8594"/><line style="stroke:#181818;stroke-width:1.0;" x1="201" x2="242" y1="146.8594" y2="146.8594"/><polygon fill="#181818" points="211,142.8594,201,146.8594,211,150.8594,207,146.8594" style="stroke:#181818;stroke-width:1.0;"/><text fill="#000000" font-family="sans-serif" font-size="13" lengthAdjust="spacing" textLength="119" x="207" y="128.7935">burns USN of Alice</text><polygon fill="#181818" points="389,171.9922,399,175.9922,389,179.9922,393,175.9922" style="stroke:#181818;stroke-width:1.0;"/><line style="stroke:#181818;stroke-width:1.0;" x1="200" x2="395" y1="175.9922" y2="175.9922"/><text fill="#000000" font-family="sans-serif" font-size="13" lengthAdjust="spacing" textLength="177" x="207" y="170.9263">ft_transfer(amount) to Alice</text><polygon fill="#181818" points="211,201.125,201,205.125,211,209.125,207,205.125" style="stroke:#181818;stroke-width:1.0;"/><line style="stroke:#181818;stroke-width:1.0;" x1="205" x2="400" y1="205.125" y2="205.125"/><text fill="#000000" font-family="sans-serif" font-size="13" lengthAdjust="spacing" textLength="105" x="217" y="200.0591">handles an error</text><polygon fill="#181818" points="39,230.2578,29,234.2578,39,238.2578,35,234.2578" style="stroke:#181818;stroke-width:1.0;"/><line style="stroke:#181818;stroke-width:1.0;" x1="33" x2="199" y1="234.2578" y2="234.2578"/><text fill="#000000" font-family="sans-serif" font-size="13" lengthAdjust="spacing" textLength="111" x="45" y="229.1919">returns the result</text><!--MD5=[5be7f02847613062191b88d20aca7336]
@startuml

title Alice withdraws USDT for USN

Alice->USN2: withdraw(USN amount)
USN2->USN2: burns USN of Alice
USN2->USDT: ft_transfer(amount) to Alice
USDT->USN2: handles an error
USN2->Alice: returns the result
@enduml

PlantUML version 1.2022.5(Sat Apr 30 13:55:52 EEST 2022)
(GPL source distribution)
Java Runtime: OpenJDK Runtime Environment
JVM: OpenJDK 64-Bit Server VM
Default Encoding: UTF-8
Language: en
Country: null
--></g></svg>